<?xml version="1.0" encoding="UTF-8"?>
<svg width="243px" height="62px" viewBox="0 0 243 62" version="1.1" xmlns="http://www.w3.org/2000/svg" xmlns:xlink="http://www.w3.org/1999/xlink">
    <title>598bec02d131f96ad816e671875c16fa</title>
    <defs>
        <linearGradient x1="14.5792455%" y1="85.2810771%" x2="85.2805409%" y2="14.5798394%" id="linearGradient-1">
            <stop stop-color="#0091B7" offset="0%"></stop>
            <stop stop-color="#00DA99" offset="100%"></stop>
        </linearGradient>
        <linearGradient x1="14.5792265%" y1="85.2810786%" x2="85.2804313%" y2="14.578944%" id="linearGradient-2">
            <stop stop-color="#0041DA" offset="0%"></stop>
            <stop stop-color="#007AC2" offset="100%"></stop>
        </linearGradient>
        <linearGradient x1="6.99020834%" y1="92.8399719%" x2="92.8396612%" y2="6.990334%" id="linearGradient-3">
            <stop stop-color="#00F190" offset="0%"></stop>
            <stop stop-color="#F2E901" offset="100%"></stop>
        </linearGradient>
        <linearGradient x1="14.5796731%" y1="85.2810471%" x2="85.2802675%" y2="14.5798695%" id="linearGradient-4">
            <stop stop-color="#0091B7" offset="0%"></stop>
            <stop stop-color="#00DA99" offset="100%"></stop>
        </linearGradient>
        <linearGradient x1="14.5793498%" y1="85.2816133%" x2="85.2802203%" y2="14.5789325%" id="linearGradient-5">
            <stop stop-color="#0041DA" offset="0%"></stop>
            <stop stop-color="#007AC2" offset="100%"></stop>
        </linearGradient>
        <linearGradient x1="6.99020471%" y1="92.8399217%" x2="92.8396129%" y2="6.9905464%" id="linearGradient-6">
            <stop stop-color="#00F190" offset="0%"></stop>
            <stop stop-color="#F2E901" offset="100%"></stop>
        </linearGradient>
        <linearGradient x1="85.4203066%" y1="14.7188549%" x2="14.7196141%" y2="85.4202288%" id="linearGradient-7">
            <stop stop-color="#0091B7" offset="0%"></stop>
            <stop stop-color="#00DA99" offset="100%"></stop>
        </linearGradient>
        <linearGradient x1="85.4206502%" y1="14.7190924%" x2="14.7197797%" y2="85.4210961%" id="linearGradient-8">
            <stop stop-color="#0041DA" offset="0%"></stop>
            <stop stop-color="#007AC2" offset="100%"></stop>
        </linearGradient>
        <linearGradient x1="93.0097953%" y1="7.16027265%" x2="7.16038714%" y2="93.0094678%" id="linearGradient-9">
            <stop stop-color="#00F190" offset="0%"></stop>
            <stop stop-color="#F2E901" offset="100%"></stop>
        </linearGradient>
        <linearGradient x1="85.4211655%" y1="14.719014%" x2="14.7194529%" y2="85.4204895%" id="linearGradient-10">
            <stop stop-color="#0091B7" offset="0%"></stop>
            <stop stop-color="#00DA99" offset="100%"></stop>
        </linearGradient>
        <linearGradient x1="85.4206502%" y1="14.7192357%" x2="14.7197797%" y2="85.4203896%" id="linearGradient-11">
            <stop stop-color="#0041DA" offset="0%"></stop>
            <stop stop-color="#007AC2" offset="100%"></stop>
        </linearGradient>
        <linearGradient x1="93.0097422%" y1="7.16027365%" x2="7.16033502%" y2="93.0094668%" id="linearGradient-12">
            <stop stop-color="#00F190" offset="0%"></stop>
            <stop stop-color="#F2E901" offset="100%"></stop>
        </linearGradient>
    </defs>
    <g id="页面-1" stroke="none" stroke-width="1" fill="none" fill-rule="evenodd">
        <g id="598bec02d131f96ad816e671875c16fa">
            <path d="M14.2504961,30.2145989 C15.9998961,28.4686989 16.0051961,25.6431989 14.2621961,23.9036989 C12.5192961,22.1641989 9.68819614,22.1694989 7.93884614,23.9153989 C6.18945614,25.6612989 6.18421614,28.4867989 7.92713614,30.2262989 C9.67009614,31.9656989 12.5010961,31.9604989 14.2504961,30.2145989 Z" id="路径" fill="url(#linearGradient-1)" fill-rule="nonzero"></path>
            <path d="M6.07347614,36.9600989 C7.46651614,35.5698989 7.47069614,33.3199989 6.08280614,31.9347989 C4.69492614,30.5496989 2.44054614,30.5538989 1.04751614,31.9440989 C-0.345523856,33.3343989 -0.349693856,35.5842989 1.03818614,36.9694989 C2.42606614,38.3545989 4.68044614,38.3503989 6.07347614,36.9600989 Z" id="路径" fill="url(#linearGradient-2)" fill-rule="nonzero"></path>
            <path d="M36.4982961,1.65714888 C38.7033961,3.85787888 38.7134961,7.41588888 36.5208961,9.60419888 C35.2536961,10.8688989 33.5280961,11.3992989 31.8715961,11.1969989 L31.8257961,11.1925989 C30.1794961,11.0013989 28.4773961,11.5423989 27.2184961,12.7988989 C25.9810961,14.0337989 25.4451961,15.7049989 25.6093961,17.3221989 C25.8499961,19.0087989 25.3233961,20.7794989 24.0280961,22.0722989 C21.8353961,24.2605989 18.2703961,24.2504989 16.0652961,22.0497989 C13.8601961,19.8489989 13.8500961,16.2909989 16.0427961,14.1026989 C17.3679961,12.7800989 19.1945961,12.2605989 20.9191961,12.5423989 C22.5055961,12.6723989 24.1329961,12.1341989 25.3426961,10.9268989 C26.6124961,9.65969888 27.1434961,7.93309888 26.9373961,6.27678888 L26.9395961,6.27447888 C26.7368961,4.62130888 27.2683961,2.89927888 28.5354961,1.63466888 C30.7281961,-0.553641119 34.2932961,-0.543571119 36.4982961,1.65714888 Z" id="路径" fill="url(#linearGradient-3)"></path>
            <path d="M34.5747961,50.4606989 C36.3240961,48.7146989 36.3293961,45.8892989 34.5864961,44.1497989 C32.8434961,42.4102989 30.0124961,42.4155989 28.2630961,44.1614989 C26.5136961,45.9073989 26.5083961,48.7328989 28.2513961,50.4723989 C29.9942961,52.2117989 32.8253961,52.2065989 34.5747961,50.4606989 Z" id="路径" fill="url(#linearGradient-4)" fill-rule="nonzero"></path>
            <path d="M26.3976961,57.2061989 C27.7906961,55.8159989 27.7948961,53.5659989 26.4069961,52.1808989 C25.0190961,50.7957989 22.7647961,50.7998989 21.3716961,52.1901989 C19.9786961,53.5804989 19.9744961,55.8303989 21.3623961,57.2155989 C22.7502961,58.6006989 25.0046961,58.5964989 26.3976961,57.2061989 Z" id="路径" fill="url(#linearGradient-5)" fill-rule="nonzero"></path>
            <path d="M56.8225961,21.9031989 C59.0275961,24.1039989 59.0376961,27.6619989 56.8450961,29.8502989 C55.5778961,31.1149989 53.8523961,31.6453989 52.1957961,31.4430989 L52.1499961,31.4386989 C50.5036961,31.2474989 48.8015961,31.7884989 47.5426961,33.0449989 C46.3052961,34.2798989 45.7693961,35.9509989 45.9336961,37.5682989 C46.1741961,39.2547989 45.6475961,41.0255989 44.3522961,42.3183989 C42.1596961,44.5066989 38.5945961,44.4965989 36.3894961,42.2958989 C34.1843961,40.0950989 34.1742961,36.5370989 36.3669961,34.3487989 C37.6921961,33.0261989 39.5187961,32.5066989 41.2434961,32.7884989 C42.8297961,32.9183989 44.4572961,32.3802989 45.6669961,31.1729989 C46.9366961,29.9056989 47.4677961,28.1791989 47.2616961,26.5228989 L47.2637961,26.5205989 C47.0611961,24.8673989 47.5925961,23.1453989 48.8597961,21.8807989 C51.0523961,19.6924989 54.6174961,19.7024989 56.8225961,21.9031989 Z" id="路径" fill="url(#linearGradient-6)"></path>
            <path d="M41.1592961,10.8996989 C39.4098961,12.6456989 39.4045961,15.4710989 41.1474961,17.2105989 C42.8904961,18.9500989 45.7214961,18.9447989 47.4708961,17.1988989 C49.2202961,15.4529989 49.2255961,12.6274989 47.4825961,10.8879989 C45.7396961,9.14859888 42.9085961,9.15379888 41.1592961,10.8996989 Z" id="路径" fill="url(#linearGradient-7)" fill-rule="nonzero"></path>
            <path d="M49.3362961,4.15415888 C47.9432961,5.54443888 47.9390961,7.79439888 49.3269961,9.17949888 C50.7148961,10.5645989 52.9691961,10.5604989 54.3622961,9.17019888 C55.7552961,7.77989888 55.7594961,5.52997888 54.3715961,4.14484888 C52.9836961,2.75970888 50.7292961,2.76387888 49.3362961,4.15415888 Z" id="路径" fill="url(#linearGradient-8)" fill-rule="nonzero"></path>
            <path d="M18.9113961,39.4590989 C16.7063961,37.2583989 16.6962961,33.7003989 18.8888961,31.5120989 C20.1560961,30.2473989 21.8815961,29.7169989 23.5381961,29.9192989 L23.5839961,29.9235989 C25.2302961,30.1147989 26.9323961,29.5737989 28.1912961,28.3173989 C29.4286961,27.0823989 29.9645961,25.4112989 29.8003961,23.7940989 C29.5597961,22.1074989 30.0863961,20.3366989 31.3816961,19.0439989 C33.5743961,16.8556989 37.1393961,16.8657989 39.3444961,19.0664989 C41.5495961,21.2671989 41.5596961,24.8251989 39.3669961,27.0134989 C38.0417961,28.3360989 36.2151961,28.8556989 34.4904961,28.5738989 C32.9041961,28.4438989 31.2766961,28.9820989 30.0669961,30.1893989 C28.7972961,31.4565989 28.2661961,33.1831989 28.4723961,34.8394989 L28.4701961,34.8417989 C28.6728961,36.4948989 28.1413961,38.2169989 26.8742961,39.4815989 C24.6815961,41.6698989 21.1164961,41.6597989 18.9113961,39.4590989 Z" id="路径" fill="url(#linearGradient-9)"></path>
            <path d="M61.4834961,31.1457989 C59.7340961,32.8916989 59.7287961,35.7171989 61.4717961,37.4566989 C63.2146961,39.1961989 66.0457961,39.1908989 67.7951961,37.4449989 C69.5444961,35.6990989 69.5497961,32.8735989 67.8068961,31.1340989 C66.0638961,29.3945989 63.2328961,29.3998989 61.4834961,31.1457989 Z" id="路径" fill="url(#linearGradient-10)" fill-rule="nonzero"></path>
            <path d="M69.6604961,24.3982989 C68.2674961,25.7885989 68.2632961,28.0384989 69.6511961,29.4235989 C71.0390961,30.8087989 73.2934961,30.8045989 74.6864961,29.4142989 C76.0794961,28.0239989 76.0836961,25.7740989 74.6957961,24.3889989 C73.3078961,23.0038989 71.0535961,23.0079989 69.6604961,24.3982989 Z" id="路径" fill="url(#linearGradient-11)" fill-rule="nonzero"></path>
            <path d="M39.2356961,59.7012989 C37.0305961,57.5005989 37.0204961,53.9425989 39.2130961,51.7541989 C40.4802961,50.4895989 42.2058961,49.9591989 43.8623961,50.1614989 L43.9081961,50.1657989 C45.5544961,50.3569989 47.2565961,49.8159989 48.5155961,48.5595989 C49.7528961,47.3245989 50.2887961,45.6534989 50.1245961,44.0361989 C49.8839961,42.3496989 50.4105961,40.5788989 51.7058961,39.2861989 C53.8985961,37.0978989 57.4635961,37.1079989 59.6686961,39.3086989 C61.8737961,41.5093989 61.8838961,45.0673989 59.6912961,47.2556989 C58.3659961,48.5782989 56.5393961,49.0978989 54.8147961,48.8160989 C53.2283961,48.6860989 51.6009961,49.2242989 50.3912961,50.4315989 C49.1214961,51.6987989 48.5904961,53.4252989 48.7965961,55.0816989 L48.7943961,55.0839989 C48.9970961,56.7370989 48.4655961,58.4591989 47.1984961,59.7237989 C45.0057961,61.9120989 41.4407961,61.9019989 39.2356961,59.7012989 Z" id="路径" fill="url(#linearGradient-12)"></path>
            <polygon id="路径" fill="#000000" fill-rule="nonzero" points="99.3012961 9.55529888 99.3012961 29.1480989 92.7459961 29.1480989 92.7459961 9.55529888 87.3610961 9.55529888 87.3610961 4.02394888 104.686296 4.02394888 104.686296 9.55529888"></polygon>
            <polygon id="路径" fill="#000000" fill-rule="nonzero" points="113.083296 12.0551989 113.083296 29.1488989 107.029296 29.1488989 107.029296 12.0551989"></polygon>
            <path d="M106.626296,5.49105888 C106.626296,5.02456888 106.716296,4.58583888 106.894296,4.17487888 C107.072296,3.76391888 107.318296,3.40293888 107.630296,3.09193888 C107.942296,2.78094888 108.304296,2.53658888 108.717296,2.35887888 C109.129296,2.18116888 109.570296,2.09230888 110.038296,2.09230888 C110.506296,2.09230888 110.947296,2.18116888 111.359296,2.35887888 C111.772296,2.53658888 112.134296,2.78094888 112.446296,3.09193888 C112.758296,3.40293888 113.004296,3.76391888 113.182296,4.17487888 C113.360296,4.58583888 113.449296,5.02456888 113.449296,5.49105888 C113.449296,5.95755888 113.360296,6.39627888 113.182296,6.80723888 C113.004296,7.21820888 112.758296,7.57917888 112.446296,7.89019888 C112.134296,8.20119888 111.772296,8.44549888 111.359296,8.62319888 C110.947296,8.80099888 110.506296,8.88979888 110.038296,8.88979888 C109.570296,8.88979888 109.129296,8.80099888 108.717296,8.62319888 C108.304296,8.44549888 107.942296,8.20119888 107.630296,7.89019888 C107.318296,7.57917888 107.072296,7.21820888 106.894296,6.80723888 C106.716296,6.39627888 106.626296,5.95755888 106.626296,5.49105888 Z" id="路径" fill="#52FF3A" fill-rule="nonzero"></path>
            <polygon id="路径" fill="#000000" fill-rule="nonzero" points="123.687296 17.0872989 123.687296 29.1494989 117.633296 29.1494989 117.633296 17.0872989 115.626296 17.0872989 115.626296 12.0557989 117.633296 12.0557989 117.633296 6.92433888 123.687296 6.92433888 123.687296 12.0557989 127.132296 12.0557989 127.132296 17.0872989"></polygon>
            <path d="M137.031296,11.5219989 C138.974296,11.5219989 140.615296,12.1354989 141.952296,13.3625989 L141.951296,18.5686989 C141.791296,18.3075989 141.606296,18.0689989 141.395296,17.8529989 C141.050296,17.4975989 140.637296,17.2198989 140.158296,17.0199989 C139.679296,16.8200989 139.171296,16.7200989 138.636296,16.7200989 C138.079296,16.7200989 137.560296,16.8200989 137.081296,17.0199989 C136.602296,17.2198989 136.189296,17.4975989 135.843296,17.8529989 C135.498296,18.2083989 135.225296,18.6137989 135.024296,19.0691989 C134.823296,19.5245989 134.723296,20.0188989 134.723296,20.5519989 C134.723296,21.1073989 134.823296,21.6237989 135.024296,22.1013989 C135.225296,22.5790989 135.498296,22.9955989 135.843296,23.3509989 C136.189296,23.7063989 136.602296,23.9840989 137.081296,24.1839989 C137.560296,24.3838989 138.079296,24.4838989 138.636296,24.4838989 C139.171296,24.4838989 139.679296,24.3838989 140.158296,24.1839989 C140.637296,23.9840989 141.050296,23.7063989 141.395296,23.3509989 C141.741296,22.9955989 142.020296,22.5845989 142.232296,22.1180989 C142.443296,21.6515989 142.549296,21.1517989 142.549296,20.6186989 L142.549296,20.6017989 L142.549296,12.0549989 L148.436296,12.0550989 L148.436296,29.1488989 L142.349296,29.1488989 L142.349296,27.2495989 C141.055296,28.8711989 139.305296,29.6819989 137.098296,29.6819989 C135.849296,29.6819989 134.701296,29.4542989 133.653296,28.9988989 C132.605296,28.5434989 131.690296,27.9048989 130.910296,27.0829989 C130.130296,26.2609989 129.522296,25.2946989 129.087296,24.1839989 C128.652296,23.0732989 128.435296,21.8625989 128.435296,20.5519989 C128.435296,19.3301989 128.647296,18.1695989 129.071296,17.0699989 C129.494296,15.9703989 130.085296,15.0095989 130.843296,14.1876989 C131.601296,13.3657989 132.504296,12.7159989 133.552296,12.2383989 C134.600296,11.7607989 135.760296,11.5219989 137.031296,11.5219989 Z" id="路径" fill="#000000" fill-rule="nonzero"></path>
            <path d="M150.759296,12.0564989 L156.813296,12.0564989 L156.813296,14.2223989 C157.638296,13.2226989 158.474296,12.5507989 159.322296,12.2063989 C160.169296,11.8620989 161.161296,11.6899989 162.298296,11.6899989 C163.502296,11.6899989 164.534296,11.8842989 165.392296,12.2730989 C166.250296,12.6617989 166.981296,13.2115989 167.583296,13.9224989 C168.073296,14.4999989 168.408296,15.1442989 168.586296,15.8550989 C168.764296,16.5659989 168.854296,17.3767989 168.854296,18.2874989 L168.854296,29.1501989 L162.800296,29.1501989 L162.800296,20.5200989 C162.800296,19.6758989 162.739296,18.9927989 162.616296,18.4707989 C162.493296,17.9487989 162.276296,17.5322989 161.964296,17.2212989 C161.696296,16.9546989 161.395296,16.7658989 161.061296,16.6547989 C160.726296,16.5436989 160.369296,16.4881989 159.990296,16.4881989 C158.965296,16.4881989 158.179296,16.7935989 157.632296,17.4044989 C157.086296,18.0153989 156.813296,18.8872989 156.813296,20.0201989 L156.813296,29.1501989 L150.759296,29.1501989 L150.759296,12.0564989 Z" id="路径" fill="#000000" fill-rule="nonzero"></path>
            <polygon id="路径" fill="#000000" fill-rule="nonzero" points="89.7360961 58.6382989 89.7360961 33.5141989 96.2915961 33.5141989 108.399296 48.8751989 108.399296 33.5141989 114.921296 33.5141989 114.921296 58.6382989 108.399296 58.6382989 96.2915961 43.2772989 96.2915961 58.6382989"></polygon>
            <path d="M129.787296,47.6081989 C129.586296,46.7640989 129.174296,46.0864989 128.549296,45.5755989 C127.925296,45.0646989 127.167296,44.8091989 126.275296,44.8091989 C125.339296,44.8091989 124.575296,45.0535989 123.984296,45.5422989 C123.393296,46.0309989 123.020296,46.7195989 122.864296,47.6081989 L129.787296,47.6081989 Z M122.696296,51.1068989 C122.696296,53.7059989 123.923296,55.0054989 126.375296,55.0054989 C127.691296,55.0054989 128.683296,54.4723989 129.352296,53.4060989 L135.205296,53.4060989 C134.023296,57.3157989 131.069296,59.2705989 126.342296,59.2705989 C124.893296,59.2705989 123.566296,59.0539989 122.362296,58.6207989 C121.158296,58.1876989 120.127296,57.5711989 119.268296,56.7714989 C118.410296,55.9717989 117.746296,55.0165989 117.278296,53.9058989 C116.810296,52.7951989 116.576296,51.5511989 116.576296,50.1738989 C116.576296,48.7521989 116.799296,47.4693989 117.245296,46.3252989 C117.691296,45.1812989 118.326296,44.2094989 119.151296,43.4097989 C119.976296,42.6099989 120.974296,41.9935989 122.144296,41.5603989 C123.315296,41.1272989 124.636296,40.9106989 126.108296,40.9106989 C127.557296,40.9106989 128.862296,41.1272989 130.021296,41.5603989 C131.181296,41.9935989 132.162296,42.6211989 132.964296,43.4430989 C133.767296,44.2649989 134.380296,45.2701989 134.804296,46.4585989 C135.228296,47.6470989 135.439296,48.9854989 135.439296,50.4737989 L135.439296,51.1068989 L122.696296,51.1068989 Z" id="形状" fill="#000000" fill-rule="nonzero"></path>
            <polygon id="路径" fill="#000000" fill-rule="nonzero" points="145.042296 46.5755989 145.042296 58.6377989 138.989296 58.6377989 138.989296 46.5755989 136.982296 46.5755989 136.982296 41.5440989 138.989296 41.5440989 138.989296 36.4125989 145.042296 36.4125989 145.042296 41.5440989 148.487296 41.5440989 148.487296 46.5755989"></polygon>
            <polygon id="路径" fill="#000000" fill-rule="nonzero" points="156.043296 41.5453989 160.157296 50.5420989 164.438296 41.5453989 168.251296 41.5453989 172.532296 50.8086989 176.846296 41.5453989 183.569296 41.5453989 174.605296 58.6391989 170.558296 58.6391989 166.277296 49.2758989 162.197296 58.6391989 158.083296 58.6391989 149.287296 41.5453989"></polygon>
            <path d="M190.167296,50.0072989 C190.167296,50.5848989 190.273296,51.1124989 190.485296,51.5900989 C190.697296,52.0676989 190.975296,52.4841989 191.321296,52.8395989 C191.667296,53.1949989 192.079296,53.4726989 192.558296,53.6726989 C193.038296,53.8725989 193.545296,53.9724989 194.080296,53.9724989 C194.615296,53.9724989 195.123296,53.8725989 195.602296,53.6726989 C196.081296,53.4726989 196.494296,53.1949989 196.840296,52.8395989 C197.185296,52.4841989 197.464296,52.0676989 197.676296,51.5900989 C197.888296,51.1124989 197.993296,50.5959989 197.993296,50.0406989 C197.993296,49.5074989 197.888296,49.0020989 197.676296,48.5244989 C197.464296,48.0468989 197.185296,47.6303989 196.840296,47.2749989 C196.494296,46.9195989 196.081296,46.6418989 195.602296,46.4419989 C195.123296,46.2419989 194.615296,46.1420989 194.080296,46.1420989 C193.545296,46.1420989 193.038296,46.2419989 192.558296,46.4419989 C192.079296,46.6418989 191.667296,46.9195989 191.321296,47.2749989 C190.975296,47.6303989 190.697296,48.0413989 190.485296,48.5078989 C190.273296,48.9743989 190.167296,49.4741989 190.167296,50.0072989 Z M183.779296,49.9406989 C183.779296,48.6744989 184.035296,47.4915989 184.548296,46.3919989 C185.061296,45.2923989 185.774296,44.3371989 186.689296,43.5263989 C187.603296,42.7155989 188.690296,42.0768989 189.950296,41.6103989 C191.209296,41.1438989 192.586296,40.9106989 194.080296,40.9106989 C195.552296,40.9106989 196.918296,41.1383989 198.177296,41.5937989 C199.437296,42.0490989 200.530296,42.6821989 201.455296,43.4930989 C202.380296,44.3038989 203.100296,45.2701989 203.612296,46.3919989 C204.125296,47.5137989 204.382296,48.7521989 204.382296,50.1072989 C204.382296,51.4623989 204.120296,52.7007989 203.596296,53.8225989 C203.072296,54.9443989 202.353296,55.9106989 201.438296,56.7214989 C200.524296,57.5322989 199.426296,58.1598989 198.144296,58.6041989 C196.862296,59.0484989 195.474296,59.2705989 193.980296,59.2705989 C192.508296,59.2705989 191.148296,59.0484989 189.899296,58.6041989 C188.651296,58.1598989 187.575296,57.5267989 186.672296,56.7048989 C185.769296,55.8829989 185.061296,54.8999989 184.548296,53.7559989 C184.035296,52.6118989 183.779296,51.3401989 183.779296,49.9406989 Z" id="形状" fill="#000000" fill-rule="nonzero"></path>
            <path d="M206.365296,41.5447989 L212.419296,41.5447989 L212.419296,44.3436989 C213.065296,43.3218989 213.857296,42.5388989 214.793296,41.9945989 C215.730296,41.4503989 216.822296,41.1781989 218.071296,41.1781989 C218.227296,41.1781989 218.400296,41.1781989 218.589296,41.1781989 C218.779296,41.1781989 218.996296,41.2004989 219.242296,41.2448989 L219.242296,47.0093989 C218.439296,46.6095989 217.569296,46.4096989 216.633296,46.4096989 C215.228296,46.4096989 214.174296,46.8261989 213.472296,47.6591989 C212.770296,48.4921989 212.419296,49.7083989 212.419296,51.3078989 L212.419296,58.6384989 L206.365296,58.6384989 L206.365296,41.5447989 Z" id="路径" fill="#000000" fill-rule="nonzero"></path>
            <polygon id="路径" fill="#000000" fill-rule="nonzero" points="227.372296 30.9809989 227.372296 47.7081989 233.726296 41.5437989 242.021296 41.5437989 233.425296 49.4408989 242.523296 58.6374989 234.027296 58.6374989 227.372296 51.6733989 227.372296 58.6374989 221.318296 58.6374989 221.318296 30.9809989"></polygon>
        </g>
    </g>
</svg>