<svg width="244" height="66" viewBox="0 0 244 66" fill="none" xmlns="http://www.w3.org/2000/svg">
<g clip-path="url(#clip0_644_291)">
<path d="M15.7292 32.5344C17.4786 30.7885 17.4839 27.963 15.7409 26.2235C13.998 24.484 11.1669 24.4893 9.41755 26.2352C7.66816 27.9811 7.66292 30.8066 9.40584 32.5461C11.1488 34.2855 13.9798 34.2803 15.7292 32.5344Z" fill="url(#paint0_linear_644_291)"/>
<path d="M7.55218 39.2799C8.94522 37.8897 8.9494 35.6398 7.56151 34.2546C6.17363 32.8695 3.91925 32.8737 2.52622 34.2639C1.13318 35.6542 1.12901 37.9041 2.51689 39.2893C3.90477 40.6744 6.15915 40.6702 7.55218 39.2799Z" fill="url(#paint1_linear_644_291)"/>
<path fill-rule="evenodd" clip-rule="evenodd" d="M37.977 3.97695C40.1821 6.17768 40.1922 9.73569 37.9996 11.924C36.7324 13.1887 35.0068 13.7191 33.3503 13.5168L33.3045 13.5124C31.6582 13.3212 29.9561 13.8622 28.6972 15.1187C27.4598 16.3536 26.9239 18.0248 27.0881 19.642C27.3287 21.3286 26.8021 23.0993 25.5068 24.3921C23.3141 26.5804 19.7491 26.5703 17.544 24.3696C15.3389 22.1688 15.3288 18.6108 17.5215 16.4225C18.8467 15.0999 20.6733 14.5804 22.3979 14.8622C23.9843 14.9922 25.6117 14.454 26.8214 13.2467C28.0912 11.9795 28.6222 10.2529 28.4161 8.59659L28.4183 8.59428C28.2156 6.94111 28.7471 5.21908 30.0142 3.95447C32.2069 1.76616 35.772 1.77623 37.977 3.97695Z" fill="url(#paint2_linear_644_291)"/>
<path d="M36.0535 52.7805C37.8028 51.0345 37.8081 48.2091 36.0652 46.4696C34.3222 44.7301 31.4912 44.7354 29.7418 46.4813C27.9924 48.2272 27.9871 51.0527 29.7301 52.7922C31.473 54.5316 34.3041 54.5264 36.0535 52.7805Z" fill="url(#paint3_linear_644_291)"/>
<path d="M27.8764 59.526C29.2694 58.1358 29.2736 55.8858 27.8857 54.5007C26.4978 53.1156 24.2435 53.1197 22.8504 54.51C21.4574 55.9003 21.4532 58.1502 22.8411 59.5354C24.229 60.9205 26.4834 60.9163 27.8764 59.526Z" fill="url(#paint4_linear_644_291)"/>
<path fill-rule="evenodd" clip-rule="evenodd" d="M58.3013 24.223C60.5063 26.4238 60.5164 29.9818 58.3238 32.1701C57.0566 33.4348 55.3311 33.9652 53.6745 33.7629L53.6287 33.7585C51.9824 33.5673 50.2803 34.1083 49.0214 35.3648C47.784 36.5997 47.2481 38.2708 47.4124 39.8881C47.6529 41.5746 47.1263 43.3454 45.831 44.6382C43.6384 46.8265 40.0733 46.8164 37.8682 44.6157C35.6631 42.4149 35.653 38.8569 37.8457 36.6686C39.1709 35.346 40.9975 34.8265 42.7222 35.1083C44.3085 35.2382 45.936 34.7001 47.1457 33.4928C48.4154 32.2255 48.9465 30.499 48.7404 28.8427L48.7425 28.8404C48.5399 27.1872 49.0713 25.4652 50.3385 24.2006C52.5311 22.0123 56.0962 22.0223 58.3013 24.223Z" fill="url(#paint5_linear_644_291)"/>
<path d="M42.638 13.2195C40.8886 14.9655 40.8833 17.7909 42.6262 19.5304C44.3692 21.2699 47.2002 21.2646 48.9496 19.5187C50.699 17.7728 50.7043 14.9473 48.9613 13.2078C47.2184 11.4684 44.3873 11.4736 42.638 13.2195Z" fill="url(#paint6_linear_644_291)"/>
<path d="M50.815 6.47396C49.422 7.86424 49.4178 10.1142 50.8057 11.4993C52.1936 12.8844 54.4479 12.8803 55.841 11.49C57.234 10.0997 57.2382 7.84978 55.8503 6.46465C54.4624 5.07951 52.208 5.08368 50.815 6.47396Z" fill="url(#paint7_linear_644_291)"/>
<path fill-rule="evenodd" clip-rule="evenodd" d="M20.3901 41.7789C18.1851 39.5782 18.175 36.0202 20.3676 33.8319C21.6348 32.5672 23.3603 32.0368 25.0169 32.2391L25.0627 32.2434C26.709 32.4346 28.4111 31.8936 29.67 30.6372C30.9074 29.4022 31.4433 27.7311 31.2791 26.1139C31.0385 24.4273 31.5651 22.6565 32.8604 21.3638C35.0531 19.1755 38.6181 19.1856 40.8232 21.3863C43.0283 23.587 43.0384 27.145 40.8457 29.3333C39.5205 30.6559 37.6939 31.1755 35.9692 30.8937C34.3829 30.7637 32.7554 31.3019 31.5457 32.5092C30.276 33.7764 29.7449 35.503 29.9511 37.1593L29.9489 37.1616C30.1516 38.8147 29.6201 40.5368 28.353 41.8014C26.1603 43.9897 22.5952 43.9796 20.3901 41.7789Z" fill="url(#paint8_linear_644_291)"/>
<path d="M62.9622 33.4656C61.2128 35.2115 61.2075 38.037 62.9505 39.7765C64.6934 41.516 67.5245 41.5107 69.2739 39.7648C71.0232 38.0189 71.0285 35.1934 69.2856 33.4539C67.5426 31.7144 64.7116 31.7197 62.9622 33.4656Z" fill="url(#paint9_linear_644_291)"/>
<path d="M71.1392 26.7181C69.7462 28.1084 69.742 30.3583 71.1299 31.7434C72.5178 33.1286 74.7722 33.1244 76.1652 31.7341C77.5582 30.3438 77.5624 28.0939 76.1745 26.7088C74.7866 25.3237 72.5323 25.3278 71.1392 26.7181Z" fill="url(#paint10_linear_644_291)"/>
<path fill-rule="evenodd" clip-rule="evenodd" d="M40.7144 62.0211C38.5093 59.8204 38.4992 56.2624 40.6918 54.074C41.959 52.8094 43.6846 52.279 45.3411 52.4813L45.3869 52.4856C47.0332 52.6768 48.7353 52.1358 49.9943 50.8794C51.2316 49.6444 51.7675 47.9733 51.6033 46.356C51.3627 44.6695 51.8893 42.8987 53.1846 41.606C55.3773 39.4177 58.9423 39.4278 61.1474 41.6285C63.3525 43.8292 63.3626 47.3872 61.17 49.5755C59.8447 50.8981 58.0181 51.4177 56.2935 51.1359C54.7071 51.0059 53.0797 51.5441 51.87 52.7514C50.6002 54.0186 50.0692 55.7451 50.2753 57.4015L50.2731 57.4038C50.4758 59.0569 49.9443 60.779 48.6772 62.0436C46.4845 64.2319 42.9195 64.2218 40.7144 62.0211Z" fill="url(#paint11_linear_644_291)"/>
<path d="M100.78 11.8751V31.4679H94.2247V11.8751H88.8398V6.34375H106.165V11.8751H100.78Z" fill="white"/>
<path d="M114.562 14.375V31.4687H108.508V14.375H114.562Z" fill="white"/>
<path d="M108.105 7.81086C108.105 7.34437 108.195 6.90564 108.373 6.49468C108.551 6.08372 108.797 5.72274 109.109 5.41174C109.421 5.10075 109.783 4.85639 110.196 4.67868C110.608 4.50097 111.049 4.41211 111.517 4.41211C111.985 4.41211 112.426 4.50097 112.838 4.67868C113.251 4.85639 113.613 5.10075 113.925 5.41174C114.237 5.72274 114.483 6.08372 114.661 6.49468C114.839 6.90564 114.928 7.34437 114.928 7.81086C114.928 8.27736 114.839 8.71608 114.661 9.12704C114.483 9.53801 114.237 9.89898 113.925 10.21C113.613 10.521 113.251 10.7653 112.838 10.943C112.426 11.1208 111.985 11.2096 111.517 11.2096C111.049 11.2096 110.608 11.1208 110.196 10.943C109.783 10.7653 109.421 10.521 109.109 10.21C108.797 9.89898 108.551 9.53801 108.373 9.12704C108.195 8.71608 108.105 8.27736 108.105 7.81086Z" fill="#52FF3A"/>
<path d="M125.166 19.4071V31.4693H119.112V19.4071H117.105V14.3756H119.112V9.24414H125.166V14.3756H128.611V19.4071H125.166Z" fill="white"/>
<path d="M138.51 13.8418C140.453 13.8418 142.094 14.4553 143.431 15.6824L143.43 20.8885C143.27 20.6274 143.085 20.3888 142.874 20.1728C142.529 19.8174 142.116 19.5397 141.637 19.3398C141.158 19.1399 140.65 19.0399 140.115 19.0399C139.558 19.0399 139.039 19.1399 138.56 19.3398C138.081 19.5397 137.668 19.8174 137.322 20.1728C136.977 20.5282 136.704 20.9336 136.503 21.389C136.302 21.8444 136.202 22.3387 136.202 22.8718C136.202 23.4272 136.302 23.9436 136.503 24.4212C136.704 24.8989 136.977 25.3154 137.322 25.6708C137.668 26.0262 138.081 26.3039 138.56 26.5038C139.039 26.7037 139.558 26.8037 140.115 26.8037C140.65 26.8037 141.158 26.7037 141.637 26.5038C142.116 26.3039 142.529 26.0262 142.874 25.6708C143.22 25.3154 143.499 24.9044 143.711 24.4379C143.922 23.9714 144.028 23.4716 144.028 22.9385L144.028 22.9216L144.028 14.3748L149.915 14.3749V31.4687H143.828V29.5694C142.534 31.191 140.784 32.0018 138.577 32.0018C137.328 32.0018 136.18 31.7741 135.132 31.3187C134.084 30.8633 133.169 30.2247 132.389 29.4028C131.609 28.5808 131.001 27.6145 130.566 26.5038C130.131 25.3931 129.914 24.1824 129.914 22.8718C129.914 21.65 130.126 20.4894 130.55 19.3898C130.973 18.2902 131.564 17.3294 132.322 16.5075C133.08 15.6856 133.983 15.0358 135.031 14.5582C136.079 14.0806 137.239 13.8418 138.51 13.8418Z" fill="white"/>
<path d="M152.238 14.3763H158.292V16.5422C159.117 15.5425 159.953 14.8706 160.801 14.5262C161.648 14.1819 162.64 14.0098 163.777 14.0098C164.981 14.0098 166.013 14.2041 166.871 14.5929C167.729 14.9816 168.46 15.5314 169.062 16.2423C169.552 16.8198 169.887 17.4641 170.065 18.1749C170.243 18.8858 170.333 19.6966 170.333 20.6073V31.47H164.279V22.8399C164.279 21.9957 164.218 21.3126 164.095 20.7906C163.972 20.2686 163.755 19.8521 163.443 19.5411C163.175 19.2745 162.874 19.0857 162.54 18.9746C162.205 18.8635 161.848 18.808 161.469 18.808C160.444 18.808 159.658 19.1134 159.111 19.7243C158.565 20.3352 158.292 21.2071 158.292 22.34V31.47H152.238V14.3763Z" fill="white"/>
<path d="M91.2148 60.9581V35.834H97.7703L109.878 51.195V35.834H116.4V60.9581H109.878L97.7703 45.5971V60.9581H91.2148Z" fill="white"/>
<path d="M131.266 49.928C131.065 49.0839 130.653 48.4063 130.028 47.8954C129.404 47.3845 128.646 47.129 127.754 47.129C126.818 47.129 126.054 47.3734 125.463 47.8621C124.872 48.3508 124.499 49.0394 124.343 49.928H131.266ZM124.175 53.4267C124.175 56.0258 125.402 57.3253 127.854 57.3253C129.17 57.3253 130.162 56.7922 130.831 55.7259H136.684C135.502 59.6356 132.548 61.5904 127.821 61.5904C126.372 61.5904 125.045 61.3738 123.841 60.9406C122.637 60.5075 121.606 59.891 120.747 59.0913C119.889 58.2916 119.225 57.3364 118.757 56.2257C118.289 55.115 118.055 53.871 118.055 52.4937C118.055 51.072 118.278 49.7892 118.724 48.6451C119.17 47.5011 119.805 46.5293 120.63 45.7296C121.455 44.9298 122.453 44.3134 123.623 43.8802C124.794 43.4471 126.115 43.2305 127.587 43.2305C129.036 43.2305 130.341 43.4471 131.5 43.8802C132.66 44.3134 133.641 44.941 134.443 45.7629C135.246 46.5848 135.859 47.59 136.283 48.7784C136.707 49.9669 136.918 51.3053 136.918 52.7936V53.4267H124.175Z" fill="white"/>
<path d="M146.521 48.8954V60.9576H140.468V48.8954H138.461V43.8639H140.468V38.7324H146.521V43.8639H149.966V48.8954H146.521Z" fill="white"/>
<path d="M157.522 43.8652L161.636 52.8619L165.917 43.8652H169.73L174.011 53.1285L178.325 43.8652H185.048L176.084 60.959H172.037L167.756 51.5957L163.676 60.959H159.562L150.766 43.8652H157.522Z" fill="white"/>
<path d="M191.646 52.3271C191.646 52.9047 191.752 53.4323 191.964 53.9099C192.176 54.3875 192.454 54.804 192.8 55.1594C193.146 55.5148 193.558 55.7925 194.037 55.9925C194.517 56.1924 195.024 56.2923 195.559 56.2923C196.094 56.2923 196.602 56.1924 197.081 55.9925C197.56 55.7925 197.973 55.5148 198.319 55.1594C198.664 54.804 198.943 54.3875 199.155 53.9099C199.367 53.4323 199.472 52.9158 199.472 52.3605C199.472 51.8273 199.367 51.3219 199.155 50.8443C198.943 50.3667 198.664 49.9502 198.319 49.5948C197.973 49.2394 197.56 48.9617 197.081 48.7618C196.602 48.5618 196.094 48.4619 195.559 48.4619C195.024 48.4619 194.517 48.5618 194.037 48.7618C193.558 48.9617 193.146 49.2394 192.8 49.5948C192.454 49.9502 192.176 50.3612 191.964 50.8277C191.752 51.2942 191.646 51.794 191.646 52.3271ZM185.258 52.2605C185.258 50.9943 185.514 49.8114 186.027 48.7118C186.54 47.6122 187.253 46.657 188.168 45.8462C189.082 45.0354 190.169 44.3967 191.429 43.9302C192.688 43.4637 194.065 43.2305 195.559 43.2305C197.031 43.2305 198.397 43.4582 199.656 43.9136C200.916 44.3689 202.009 45.002 202.934 45.8129C203.859 46.6237 204.579 47.59 205.091 48.7118C205.604 49.8336 205.861 51.072 205.861 52.4271C205.861 53.7822 205.599 55.0206 205.075 56.1424C204.551 57.2642 203.832 58.2305 202.917 59.0413C202.003 59.8521 200.905 60.4797 199.623 60.924C198.341 61.3683 196.953 61.5904 195.459 61.5904C193.987 61.5904 192.627 61.3683 191.378 60.924C190.13 60.4797 189.054 59.8466 188.151 59.0247C187.248 58.2028 186.54 57.2198 186.027 56.0758C185.514 54.9317 185.258 53.66 185.258 52.2605Z" fill="white"/>
<path d="M207.844 43.8646H213.898V46.6635C214.544 45.6417 215.336 44.8587 216.272 44.3144C217.209 43.7702 218.301 43.498 219.55 43.498C219.706 43.498 219.879 43.498 220.068 43.498C220.258 43.498 220.475 43.5203 220.721 43.5647V49.3292C219.918 48.9294 219.048 48.7295 218.112 48.7295C216.707 48.7295 215.653 49.146 214.951 49.979C214.249 50.812 213.898 52.0282 213.898 53.6277V60.9583H207.844V43.8646Z" fill="white"/>
<path d="M228.851 33.3008V50.028L235.205 43.8636H243.5L234.904 51.7607L244.002 60.9573H235.506L228.851 53.9932V60.9573H222.797V33.3008H228.851Z" fill="white"/>
</g>
<defs>
<linearGradient id="paint0_linear_644_291" x1="9.40584" y1="32.5461" x2="15.7284" y2="26.211" gradientUnits="userSpaceOnUse">
<stop stop-color="#0091B7"/>
<stop offset="1" stop-color="#00DA99"/>
</linearGradient>
<linearGradient id="paint1_linear_644_291" x1="2.51689" y1="39.2893" x2="7.55152" y2="34.2446" gradientUnits="userSpaceOnUse">
<stop stop-color="#0041DA"/>
<stop offset="1" stop-color="#007AC2"/>
</linearGradient>
<linearGradient id="paint2_linear_644_291" x1="17.544" y1="24.3696" x2="37.9366" y2="3.93656" gradientUnits="userSpaceOnUse">
<stop stop-color="#00F190"/>
<stop offset="1" stop-color="#F2E901"/>
</linearGradient>
<linearGradient id="paint3_linear_644_291" x1="29.7301" y1="52.7922" x2="36.0526" y2="46.4571" gradientUnits="userSpaceOnUse">
<stop stop-color="#0091B7"/>
<stop offset="1" stop-color="#00DA99"/>
</linearGradient>
<linearGradient id="paint4_linear_644_291" x1="22.8411" y1="59.5354" x2="27.8757" y2="54.4907" gradientUnits="userSpaceOnUse">
<stop stop-color="#0041DA"/>
<stop offset="1" stop-color="#007AC2"/>
</linearGradient>
<linearGradient id="paint5_linear_644_291" x1="37.8682" y1="44.6157" x2="58.2608" y2="24.1827" gradientUnits="userSpaceOnUse">
<stop stop-color="#00F190"/>
<stop offset="1" stop-color="#F2E901"/>
</linearGradient>
<linearGradient id="paint6_linear_644_291" x1="48.9613" y1="13.2078" x2="42.6388" y2="19.5429" gradientUnits="userSpaceOnUse">
<stop stop-color="#0091B7"/>
<stop offset="1" stop-color="#00DA99"/>
</linearGradient>
<linearGradient id="paint7_linear_644_291" x1="55.8503" y1="6.46465" x2="50.8157" y2="11.5093" gradientUnits="userSpaceOnUse">
<stop stop-color="#0041DA"/>
<stop offset="1" stop-color="#007AC2"/>
</linearGradient>
<linearGradient id="paint8_linear_644_291" x1="40.8232" y1="21.3863" x2="20.4306" y2="41.8193" gradientUnits="userSpaceOnUse">
<stop stop-color="#00F190"/>
<stop offset="1" stop-color="#F2E901"/>
</linearGradient>
<linearGradient id="paint9_linear_644_291" x1="69.2856" y1="33.4539" x2="62.963" y2="39.789" gradientUnits="userSpaceOnUse">
<stop stop-color="#0091B7"/>
<stop offset="1" stop-color="#00DA99"/>
</linearGradient>
<linearGradient id="paint10_linear_644_291" x1="76.1745" y1="26.7088" x2="71.1399" y2="31.7534" gradientUnits="userSpaceOnUse">
<stop stop-color="#0041DA"/>
<stop offset="1" stop-color="#007AC2"/>
</linearGradient>
<linearGradient id="paint11_linear_644_291" x1="61.1474" y1="41.6285" x2="40.7548" y2="62.0615" gradientUnits="userSpaceOnUse">
<stop stop-color="#00F190"/>
<stop offset="1" stop-color="#F2E901"/>
</linearGradient>
<clipPath id="clip0_644_291">
<rect width="244" height="66" fill="white"/>
</clipPath>
</defs>
</svg>
